<?xml version="1.0" encoding="utf-8"?>
<!-- Generator: Adobe Illustrator 16.0.0, SVG Export Plug-In . SVG Version: 6.00 Build 0)  -->
<!DOCTYPE svg PUBLIC "-//W3C//DTD SVG 1.1//EN" "http://www.w3.org/Graphics/SVG/1.1/DTD/svg11.dtd">
<svg version="1.1" id="图层_1" xmlns="http://www.w3.org/2000/svg" xmlns:xlink="http://www.w3.org/1999/xlink" x="0px" y="0px"
	 width="921px" height="179px" viewBox="0 0 921 179" enable-background="new 0 0 921 179" xml:space="preserve">
<path d="M856.336,54.967V0H921v54.967H856.336z M856.336,164.49c18.359-1.633,34.475-8.582,46.203-19.002
	C913.963,135.271,921,121.785,921,106.867v-35.86h-64.664V164.49L856.336,164.49z M775.658,0v106.867
	c0,14.814,7.039,28.301,18.463,38.621c11.625,10.42,27.844,17.369,46.303,19.002V0H775.658z M242.643,74.379h23.05V11.75h25.09V0
	H217.96v11.75h24.784v62.629H242.643z M51.813,74.379c27.64,0,27.64-16.551,27.64-23.703V0H56.505v52.208
	c0,5.313-1.02,10.319-7.446,10.319H30.19c-6.222,0-7.241-5.006-7.241-10.319V0H0v50.676c0,7.152,0,23.703,27.64,23.703H51.813z
	 M207.557,0H185.22v74.379h22.336V0z M461.826,23.704v26.87c0,7.152-0.102,23.703-27.64,23.703h-51.915V0h51.915
	C461.623,0,461.826,16.552,461.826,23.704z M438.775,22.171c0-5.313-1.02-10.524-7.241-10.524H405.22v50.778h26.315
	c6.221,0,7.241-5.006,7.241-10.319V22.171z M368.298,74.379V62.527h-42.939V43.013h38.452V31.162h-38.452V11.75h41.001V0h-64.052
	v74.379H368.298z M94.038,0v74.379h17.747V24.827l30.7,49.552c9.282,0,18.359,0,27.436,0V0c-5.916,0-11.831,0-17.747,0v48.224
	L122.188,0C112.805,0,103.422,0,94.038,0z M410.115,104.416c-27.64,0-27.64,16.551-27.64,23.703v26.973
	c0,7.15,0,23.906,27.64,23.906h50.283V134.25h-38.146v11.85h15.197v20.945h-24.581c-6.324,0-7.241-5.211-7.241-10.523v-30.037
	c0-5.314,0.917-10.523,7.241-10.523h47.529v-11.75h-50.283V104.416z M633.174,104.416c-27.639,0-27.639,16.551-27.639,23.703v26.973
	c0,7.15,0,23.906,27.639,23.906h50.283V134.25h-38.145v11.85h15.197v20.945h-24.582c-6.324,0-7.24-5.211-7.24-10.523v-30.037
	c0-5.314,0.916-10.523,7.24-10.523h47.529v-11.75h-50.283V104.416z M319.953,104.518l-28.252,74.48h17.441l20.806-55.375
	l21.419,55.375h27.64l-28.252-74.48H319.953L319.953,104.518z M185.424,178.998h15.299v-49.756l21.214,49.756h15.605l23.254-49.551
	v49.551h22.438v-74.48c-9.282,0-18.053,0-27.334,0l-22.337,47.406l-20.5-47.406c-9.689,0-18.053,0-27.742,0v74.48H185.424z
	 M516.086,104.518v74.48h17.543v-49.756l30.803,49.756c9.076,0,18.256,0,27.537,0v-74.48c-5.914,0-11.832,0-17.746,0v48.326
	l-30.088-48.326C534.75,104.518,525.367,104.518,516.086,104.518z M170.125,104.518h-22.336v74.48h22.336V104.518z M498.746,104.518
	h-22.133v74.48h22.133V104.518z M579.934,36.679h-18.256V16.858h17.746v-6.539h-3.672L578.711,0h-12.75l-2.754,10.319h-14.279
	L546.072,0H534.24l2.754,10.319h-4.691v6.539h17.645v19.821h-18.053v6.641h13.77l-14.279,31.06h12.75l11.219-23.908l11.424,23.908
	h12.748l-13.973-31.06h14.381V36.679z M530.264,0v6.539h-2.551v67.84h-11.525v-6.232l-26.416,3.371v-6.845l2.754-0.307V6.539h-3.059
	V0H530.264z M516.188,46.896h-12.137v15.938l12.137-1.533V46.896z M516.188,27.075h-12.137v13.998h12.137V27.075z M516.188,6.539
	h-12.137v14.712h12.137V6.539z M593.396,74.379h12.648l4.078-12.771h-12.748L593.396,74.379z M635.215,61.607l4.283,12.771h12.342
	l-3.773-12.771H635.215z M656.326,10.319V23.09l27.131-10.319V0L656.326,10.319z M656.326,48.939l27.131-10.319V25.542
	l-27.131,10.523V48.939z M628.688,31.059h23.049v6.232h-58.34v-6.232h23.051v-5.21h-22.031V0h56.301v25.849h-22.133v5.21H628.688z
	 M607.982,10.319h29.271V5.517h-29.271V10.319z M637.254,20.638v-5.006h-29.17v5.006H637.254z M656.326,74.379l27.131-10.217V51.391
	l-27.131,10.524V74.379z M637.254,46.896h-29.17v6.13h29.17V46.896z M650.82,41.276v17.676h-22.236v15.529h-12.137V58.849h-22.031
	V41.276H650.82z"/>
</svg>
